<?xml version="1.0" encoding="utf-8"?>
<!-- Generator: Adobe Illustrator 22.0.1, SVG Export Plug-In . SVG Version: 6.00 Build 0)  -->
<svg version="1.1" id="Layer_1" xmlns="http://www.w3.org/2000/svg" xmlns:xlink="http://www.w3.org/1999/xlink" x="0px" y="0px"
	 viewBox="0 0 256 256" style="enable-background:new 0 0 256 256;" xml:space="preserve">
<style type="text/css">
	.st0{fill:#3A312A;}
	.st1{fill:#D6DF58;}
	.st2{fill:#87796F;}
	.st3{fill:#B9C239;}
	.st4{fill:#EF6D7A;}
	.st5{fill:#FCE8CB;}
	.st6{fill:#D5DE58;}
	.st7{fill:#D34E5C;}
	.st8{fill:#695B51;}
	.st9{fill:#8AC6DD;}
	.st10{fill:#D7E057;}
	.st11{fill:#B8C136;}
	.st12{fill:#F16C7A;}
	.st13{fill:#8AC2D9;}
	.st14{fill:#F7E3C7;}
	.st15{fill:#8AC3DA;}
	.st16{fill:#6DA3BC;}
	.st17{fill:#6A5C52;}
	.st18{fill:#D5DC57;}
	.st19{fill:#F6E2C6;}
	.st20{fill:#DBC7AA;}
	.st21{fill:#CE4E61;}
	.st22{fill:#FAE6CA;}
	.st23{fill:#8AC5DC;}
	.st24{fill:#DDC9AC;}
	.st25{fill:#DECAAD;}
	.st26{fill:#6CA6BE;}
	.st27{fill:#F8E4C8;}
	.st28{fill:#89C4DB;}
	.st29{fill:#ED6E7A;}
	.st30{fill:#D24E5C;}
	.st31{fill:#6DA4BD;}
	.st32{fill:#EB6E7A;}
	.st33{fill:#68A7BB;}
	.st34{fill:#B9BC37;}
	.st35{fill:#CC4E61;}
	.st36{fill:#6CA8BF;}
	.st37{fill-rule:evenodd;clip-rule:evenodd;fill:#D5DE58;}
	.st38{fill:#EA6D7A;}
	.st39{fill:#F4E0C4;}
	.st40{fill-rule:evenodd;clip-rule:evenodd;fill:#D6DF58;}
	.st41{fill-rule:evenodd;clip-rule:evenodd;fill:#F16C7A;}
	.st42{fill:#F3DEC3;}
	.st43{fill-rule:evenodd;clip-rule:evenodd;fill:#FAE6CA;}
	.st44{fill:#F59689;}
	.st45{fill-rule:evenodd;clip-rule:evenodd;fill:#F8E4C8;}
	.st46{fill-rule:evenodd;clip-rule:evenodd;fill:#FCE8CB;}
	.st47{fill:#F5978A;}
	.st48{fill:#D4DB56;}
	.st49{fill-rule:evenodd;clip-rule:evenodd;fill:#D4DA55;}
	.st50{fill-rule:evenodd;clip-rule:evenodd;fill:#EB6E7A;}
	.st51{fill:#68A6B9;}
	.st52{fill-rule:evenodd;clip-rule:evenodd;fill:#D5DC57;}
	.st53{fill:#8AC1D8;}
	.st54{fill:#F5E1C5;}
	.st55{fill:#D4D752;}
	.st56{fill:#D3D751;}
	.st57{fill:#D4D853;}
	.st58{fill:#E96C7A;}
	.st59{fill:#D4DA55;}
	.st60{fill:#8BC0D7;}
	.st61{fill:#87796F;stroke:#3A312A;stroke-width:3;stroke-linecap:round;stroke-linejoin:round;stroke-miterlimit:10;}
</style>
<g>
	<g>
		<g>
			<path class="st18" d="M59.095,25.938C58.121,37.502,46.07,39.328,46.07,39.328c10.347,0.487,12.925,14.059,12.925,14.059
				c0.221-9.677,13.321-14.202,13.321-14.202C62.503,38.597,59.095,25.938,59.095,25.938z"/>
		</g>
	</g>
	<g>
		<g>
			<path class="st0" d="M72.407,37.687c-8.605-0.515-11.833-12.024-11.864-12.141c-0.19-0.702-0.85-1.162-1.583-1.102
				c-0.725,0.066-1.298,0.642-1.359,1.367c-0.86,10.215-11.314,11.964-11.754,12.033c-0.763,0.115-1.313,0.79-1.273,1.561
				c0.04,0.77,0.657,1.384,1.428,1.421c9.028,0.425,11.498,12.718,11.522,12.842c0.137,0.711,0.759,1.217,1.472,1.217
				c0.042,0,0.085-0.001,0.127-0.005c0.764-0.064,1.357-0.693,1.374-1.459c0.195-8.508,12.192-12.777,12.313-12.819
				c0.675-0.235,1.092-0.914,0.994-1.623C73.704,38.271,73.121,37.73,72.407,37.687z M58.84,48.033
				c-1.356-3.131-3.709-6.908-7.587-8.877c2.931-1.405,6.409-3.913,8.202-8.272c1.551,3.071,4.2,6.88,8.334,8.722
				C64.782,41.246,60.867,44.012,58.84,48.033z"/>
		</g>
	</g>
	<g>
		<g>
			<path class="st18" d="M37.396,42.919c-0.689,8.179-9.212,9.47-9.212,9.47c7.318,0.344,9.142,9.944,9.142,9.944
				c0.156-6.844,9.422-10.045,9.422-10.045C39.807,51.873,37.396,42.919,37.396,42.919z"/>
		</g>
	</g>
	<g>
		<g>
			<path class="st0" d="M46.838,50.791c-5.766-0.345-7.973-8.186-7.994-8.265c-0.191-0.702-0.85-1.167-1.582-1.102
				c-0.726,0.065-1.299,0.643-1.36,1.368c-0.579,6.871-7.646,8.067-7.942,8.114c-0.763,0.115-1.313,0.79-1.273,1.561
				c0.04,0.77,0.657,1.384,1.428,1.421c6.035,0.284,7.723,8.644,7.739,8.726c0.135,0.713,0.759,1.22,1.472,1.22
				c0.042,0,0.083-0.001,0.125-0.005c0.765-0.063,1.358-0.694,1.376-1.461c0.13-5.709,8.331-8.634,8.413-8.662
				c0.676-0.234,1.094-0.913,0.996-1.622C48.137,51.375,47.552,50.833,46.838,50.791z M37.253,57.585
				c-0.924-1.885-2.34-3.947-4.447-5.28c1.855-1.041,3.697-2.63,4.871-4.916c1.057,1.874,2.654,3.954,4.941,5.223
				C40.768,53.714,38.629,55.353,37.253,57.585z"/>
		</g>
	</g>
	<g>
		<g>
			<path class="st18" d="M37.358,16.261c-0.657,8.182-9.175,9.507-9.175,9.507c7.319,0.316,9.181,9.908,9.181,9.908
				c0.129-6.845,9.383-10.082,9.383-10.082C39.804,25.206,37.358,16.261,37.358,16.261z"/>
		</g>
	</g>
	<g>
		<g>
			<path class="st0" d="M46.83,24.097c-5.741-0.321-7.983-8.083-8.025-8.231c-0.193-0.702-0.867-1.168-1.586-1.097
				c-0.726,0.068-1.297,0.647-1.356,1.374c-0.552,6.873-7.615,8.096-7.911,8.144c-0.762,0.119-1.31,0.796-1.267,1.566
				c0.043,0.77,0.663,1.382,1.433,1.415c6.036,0.261,7.756,8.614,7.772,8.696c0.138,0.71,0.76,1.214,1.471,1.214
				c0.043,0,0.087-0.002,0.131-0.005c0.765-0.066,1.356-0.699,1.37-1.466c0.108-5.71,8.298-8.667,8.378-8.695
				c0.676-0.236,1.09-0.917,0.99-1.626C48.132,24.676,47.545,24.137,46.83,24.097z M37.272,30.929
				c-0.931-1.882-2.355-3.938-4.468-5.263c1.852-1.048,3.687-2.644,4.852-4.935c1.064,1.87,2.669,3.944,4.961,5.204
				C40.772,27.043,38.64,28.692,37.272,30.929z"/>
		</g>
	</g>
	<g>
		<g>
			<path class="st2" d="M119.359,193.279c-8.51,0-16.71-4.44-21.24-12.2c-1.73-2.97-4.05-5.52-6.78-7.5
				c-2.72-1.97-5.84-3.4-9.19-4.13l-20.21,53.14l31.74-15.59l13.37,32.74l17.92-47.13
				C123.109,193.059,121.229,193.279,119.359,193.279z"/>
		</g>
	</g>
	<g>
		<g>
			<path class="st0" d="M126.094,191.617c-0.369-0.417-0.935-0.597-1.478-0.466c-1.722,0.417-3.491,0.627-5.258,0.627
				c-8.177,0-15.819-4.39-19.944-11.455c-1.834-3.149-4.255-5.827-7.196-7.96c-2.957-2.141-6.237-3.615-9.75-4.381
				c-0.723-0.154-1.458,0.238-1.721,0.933l-20.21,53.14c-0.219,0.576-0.064,1.227,0.392,1.642c0.455,0.415,1.119,0.51,1.671,0.237
				l30.298-14.881l12.762,31.252c0.23,0.565,0.78,0.933,1.389,0.933h0.018c0.616-0.008,1.165-0.391,1.384-0.967l17.92-47.13
				C126.569,192.622,126.462,192.035,126.094,191.617z M106.998,235.649l-11.931-29.218c-0.157-0.385-0.467-0.688-0.855-0.835
				c-0.172-0.065-0.353-0.098-0.533-0.098c-0.227,0-0.453,0.051-0.661,0.154l-28.324,13.912l18.385-48.34
				c2.638,0.731,5.115,1.929,7.379,3.569c2.601,1.886,4.742,4.255,6.366,7.042c4.661,7.984,13.296,12.943,22.535,12.943
				c1.089,0,2.179-0.071,3.261-0.211L106.998,235.649z"/>
		</g>
	</g>
	<g>
		<g>
			<path class="st2" d="M206.373,196.333l-5.018-13.195l-5.206-13.689c-6.71,1.48-12.51,5.69-15.97,11.63
				c-4.53,7.76-12.73,12.2-21.24,12.2c-1.87,0-3.75-0.22-5.61-0.67l17.92,47.13l13.37-32.74l31.74,15.59L206.373,196.333z"/>
		</g>
	</g>
	<g>
		<g>
			<path class="st0" d="M217.761,222.055l-9.985-26.255c-0.296-0.774-1.16-1.163-1.936-0.869c-0.774,0.294-1.163,1.161-0.869,1.935
				l8.633,22.698l-28.324-13.912c-0.374-0.185-0.808-0.204-1.194-0.056c-0.389,0.147-0.698,0.45-0.856,0.835l-11.931,29.217
				l-15.621-41.082c1.081,0.14,2.172,0.211,3.261,0.211c9.239,0,17.875-4.959,22.536-12.945c3.018-5.18,7.978-8.992,13.745-10.607
				l4.732,12.444c0.296,0.775,1.161,1.165,1.936,0.869c0.774-0.294,1.163-1.161,0.869-1.935l-5.206-13.689
				c-0.266-0.696-1.002-1.092-1.726-0.932c-7.113,1.569-13.289,6.067-16.941,12.338c-4.126,7.066-11.769,11.456-19.945,11.456
				c-1.767,0-3.535-0.211-5.258-0.627c-0.542-0.131-1.11,0.049-1.478,0.466c-0.368,0.417-0.475,1.004-0.277,1.525l17.921,47.13
				c0.22,0.576,0.768,0.959,1.384,0.967h0.019c0.608,0,1.158-0.368,1.389-0.933l12.762-31.252l30.298,14.881
				c0.552,0.272,1.215,0.178,1.671-0.237C217.824,223.282,217.979,222.631,217.761,222.055z"/>
		</g>
	</g>
	<g>
		<g>
			<path class="st2" d="M221.595,91.407l-0.044-0.05c-4.57-5.132-6.782-11.943-6.101-18.78l0.005-0.055
				c1.237-12.421-7.033-23.797-19.23-26.452l-0.037-0.008c-6.729-1.465-12.535-5.685-16.004-11.633l-0.002-0.003
				c-6.297-10.796-19.693-15.148-31.132-10.113c-6.309,2.777-13.493,2.777-19.802,0l0,0c-11.439-5.035-24.836-0.683-31.132,10.113
				l-0.001,0.002c-3.469,5.949-9.275,10.169-16.004,11.634l-0.037,0.008c-12.197,2.655-20.467,14.031-19.23,26.452l0.005,0.055
				c0.681,6.838-1.532,13.648-6.101,18.78l-0.044,0.05c-8.296,9.317-8.296,23.372,0,32.689l0.044,0.05
				c4.57,5.132,6.782,11.943,6.101,18.781l-0.005,0.054c-1.237,12.421,7.033,23.797,19.23,26.452l0.037,0.008
				c6.729,1.465,12.534,5.685,16.004,11.633l0.002,0.003c6.297,10.796,19.693,15.148,31.132,10.113
				c6.309-2.776,13.493-2.777,19.802,0l0,0c11.439,5.035,24.835,0.683,31.132-10.113l0.001-0.002
				c3.469-5.949,9.275-10.169,16.004-11.633l0.037-0.008c12.197-2.655,20.467-14.03,19.23-26.451l-0.005-0.055
				c-0.681-6.838,1.532-13.648,6.101-18.781l0.044-0.049C229.891,114.78,229.891,100.725,221.595,91.407z"/>
		</g>
	</g>
	<g>
		<g>
			<path class="st0" d="M222.671,90.36c-4.278-4.804-6.366-11.231-5.725-17.689c1.313-13.183-7.458-25.248-20.44-28.074
				c-6.288-1.368-11.756-5.336-15.008-10.889c-0.007-0.013-0.014-0.025-0.021-0.037c-6.685-11.462-20.883-16.074-33.032-10.73
				c-5.906,2.601-12.684,2.601-18.594,0c-12.14-5.343-26.328-0.74-33.018,10.707c-0.005,0.009-0.01,0.018-0.016,0.026
				c-3.249,5.571-8.726,9.552-15.064,10.932c-12.945,2.818-21.717,14.883-20.399,28.122c0.638,6.401-1.45,12.829-5.773,17.683
				c-8.804,9.887-8.804,24.798,0.044,34.735c4.278,4.804,6.366,11.232,5.724,17.688c-1.313,13.183,7.458,25.249,20.441,28.074
				c6.301,1.372,11.778,5.353,15.029,10.926c4.81,8.246,13.505,12.947,22.53,12.946c3.521,0,7.093-0.716,10.502-2.216
				c5.907-2.6,12.687-2.601,18.593,0c12.144,5.345,26.346,0.732,33.032-10.73c0.005-0.009,0.011-0.019,0.016-0.028
				c3.251-5.557,8.722-9.528,15.051-10.906c12.944-2.817,21.716-14.883,20.398-28.121c-0.637-6.403,1.451-12.83,5.734-17.639
				l0.042-0.048C231.519,115.205,231.518,100.295,222.671,90.36z M220.475,123.099l1.12,0.998l-1.164-0.948
				c-4.835,5.429-7.194,12.691-6.468,19.981c1.161,11.667-6.602,22.344-18.095,24.845c-7.12,1.55-13.31,6.049-16.982,12.343
				c-0.005,0.009-0.011,0.019-0.016,0.028c-5.922,10.125-18.477,14.198-29.217,9.471c-6.677-2.938-14.334-2.938-21.01,0
				c-10.749,4.732-23.315,0.649-29.234-9.499c-3.671-6.294-9.86-10.793-17.018-12.351c-11.456-2.493-19.218-13.171-18.051-24.892
				c0.72-7.234-1.64-14.497-6.518-19.976c-7.791-8.75-7.791-21.945,0.044-30.744c4.835-5.43,7.194-12.693,6.468-19.981
				c-1.162-11.667,6.601-22.344,18.094-24.846c7.112-1.548,13.294-6.037,16.967-12.32c0.005-0.008,0.01-0.017,0.015-0.025
				c5.917-10.144,18.483-14.228,29.233-9.496c6.676,2.938,14.336,2.937,21.01,0c10.734-4.727,23.287-0.658,29.212,9.461
				c0.007,0.013,0.014,0.025,0.02,0.037c3.672,6.294,9.861,10.793,17.019,12.351c11.456,2.493,19.219,13.171,18.052,24.892
				c-0.721,7.235,1.639,14.498,6.518,19.976C228.266,101.154,228.266,114.35,220.475,123.099z"/>
		</g>
	</g>
	<g>
		<g>
			
				<ellipse transform="matrix(0.7071 -0.7071 0.7071 0.7071 -35.4366 129.9527)" class="st48" cx="139.149" cy="107.752" rx="66.217" ry="66.217"/>
		</g>
	</g>
	<g>
		<g>
			<path class="st0" d="M139.148,40.035c-37.339,0-67.717,30.378-67.717,67.717s30.378,67.717,67.717,67.717
				c37.34,0,67.718-30.378,67.718-67.717S176.488,40.035,139.148,40.035z M139.148,172.469c-35.685,0-64.717-29.032-64.717-64.717
				s29.032-64.717,64.717-64.717c35.686,0,64.718,29.032,64.718,64.717S174.834,172.469,139.148,172.469z"/>
		</g>
	</g>
	<g>
		<g>
			<path class="st39" d="M171.153,109.815h-20.441c-1.979,0-3.581-1.603-3.581-3.581V94.567c0-3.995-3.239-7.234-7.229-7.234
				c-1.998,0-3.805,0.809-5.113,2.116c-1.308,1.313-2.117,3.12-2.117,5.117v9.027c0,3.719-2.368,7.029-5.893,8.228l-7.02,2.392
				c0.028,0.214,0.043,0.433,0.043,0.656v32.712c0,0.1-0.005,0.195-0.005,0.29l1.517,0.385c7.353,1.869,14.906,2.83,22.492,2.877
				c0.062,0,0.119,0.005,0.181,0.005h0.293h6.325h11.022c2.835,0,5.132-2.297,5.132-5.132v-0.067c0-2.834-2.297-5.132-5.132-5.132
				h3.51c2.835,0,5.132-2.297,5.132-5.132v-0.067c0-2.774-2.2-5.033-4.95-5.129c-0.056-0.002-2.979-0.003-3.394-0.003h6.723
				c2.834,0,5.132-2.297,5.132-5.132v-0.067c0-2.834-2.297-5.132-5.132-5.132h-5.841l0.005-0.005h8.342
				c2.835,0,5.132-2.297,5.132-5.132v-0.067C176.285,112.112,173.988,109.815,171.153,109.815z"/>
		</g>
	</g>
	<g>
		<g>
			<path class="st0" d="M177.785,114.947c0-3.657-2.975-6.632-6.632-6.632h-20.441c-1.148,0-2.082-0.934-2.082-2.081V94.567
				c0-4.816-3.916-8.734-8.729-8.734c-2.334,0-4.526,0.908-6.176,2.558c-1.646,1.653-2.554,3.846-2.554,6.176v9.027
				c0,3.08-1.96,5.816-4.877,6.808l-7.02,2.392c-0.678,0.231-1.098,0.91-1.003,1.62c0.021,0.148,0.03,0.301,0.03,0.456v32.712
				l-0.005,0.29c0,0.686,0.466,1.285,1.131,1.454l1.517,0.385c7.442,1.892,15.131,2.875,22.891,2.925
				c0.02,0.001,0.131,0.004,0.151,0.004h17.641c3.657,0,6.632-2.975,6.632-6.699c0-1.455-0.471-2.801-1.268-3.896
				c2.757-0.806,4.777-3.366,4.777-6.434c0-1.459-0.464-2.806-1.255-3.9c2.751-0.81,4.765-3.367,4.765-6.43
				c0-1.585-0.559-3.042-1.49-4.184C176.138,120.073,177.785,117.717,177.785,114.947z M171.153,118.645h-8.343
				c-0.397,0-0.784,0.163-1.065,0.444c-0.429,0.429-0.558,1.074-0.325,1.635c0.232,0.561,0.779,0.926,1.386,0.926h5.841
				c2.003,0,3.632,1.629,3.632,3.699c0,2.002-1.629,3.631-3.632,3.631h-6.771c-0.828,0-1.5,0.671-1.5,1.5s0.672,1.5,1.5,1.5
				c0.059,0,3.224,0.001,3.391,0.002c1.964,0.068,3.502,1.663,3.502,3.696c0,2.002-1.629,3.631-3.632,3.631h-3.51
				c-0.828,0-1.5,0.671-1.5,1.5s0.672,1.5,1.5,1.5c2.003,0,3.632,1.629,3.632,3.699c0,2.002-1.629,3.632-3.632,3.632l-17.67-0.001
				c-0.017-0.001-0.125-0.004-0.142-0.004c-7.479-0.047-14.925-0.999-22.132-2.831l-0.381-0.097v-31.434l5.96-2.031
				c4.133-1.406,6.91-5.283,6.91-9.648v-9.027c0-1.531,0.597-2.972,1.677-4.057c1.081-1.082,2.521-1.677,4.053-1.677
				c3.159,0,5.729,2.572,5.729,5.734v11.667c0,2.802,2.28,5.081,5.082,5.081h20.441c2.003,0,3.632,1.629,3.632,3.699
				C174.785,117.016,173.156,118.645,171.153,118.645z"/>
		</g>
	</g>
	<g>
		<g>
			<path class="st60" d="M114.405,109.471h-7.111c-2.917,0-5.282,2.365-5.282,5.282v32.946c0,2.917,2.365,5.281,5.282,5.281h7.111
				c2.982,0,5.399-2.417,5.399-5.399V114.87C119.804,111.888,117.387,109.471,114.405,109.471z"/>
		</g>
	</g>
	<g>
		<g>
			<path class="st0" d="M114.405,107.971h-7.111c-3.739,0-6.782,3.042-6.782,6.782v8.081c0,0.829,0.671,1.5,1.5,1.5
				c0.829,0,1.5-0.671,1.5-1.5v-8.081c0-2.085,1.696-3.782,3.782-3.782h7.111c2.15,0,3.899,1.749,3.899,3.899v32.711
				c0,2.15-1.749,3.899-3.899,3.899h-7.111c-2.085,0-3.782-1.696-3.782-3.781v-12.857c0-0.829-0.671-1.5-1.5-1.5
				c-0.829,0-1.5,0.671-1.5,1.5v12.857c0,3.739,3.042,6.781,6.782,6.781h7.111c3.804,0,6.899-3.095,6.899-6.899V114.87
				C121.304,111.066,118.209,107.971,114.405,107.971z"/>
		</g>
	</g>
	<g>
		<g>
			<path class="st2" d="M110.876,142.054c-1.801,0-3.261,1.46-3.261,3.261s1.46,3.261,3.261,3.261c1.801,0,3.261-1.46,3.261-3.261
				S112.677,142.054,110.876,142.054z"/>
		</g>
	</g>
	<g>
		<g>
			<path class="st0" d="M110.876,140.554c-2.625,0-4.761,2.136-4.761,4.761c0,2.625,2.136,4.761,4.761,4.761
				c2.626,0,4.761-2.136,4.761-4.761C115.638,142.69,113.502,140.554,110.876,140.554z M110.876,147.076
				c-0.971,0-1.761-0.79-1.761-1.761c0-0.971,0.79-1.761,1.761-1.761s1.761,0.79,1.761,1.761
				C112.638,146.286,111.848,147.076,110.876,147.076z"/>
		</g>
	</g>
	<g>
		<g>
			<path class="st12" d="M152.035,64.638c1.247-1.215,0.559-3.333-1.164-3.583l-5.454-0.792c-0.684-0.099-1.276-0.529-1.582-1.149
				l-2.439-4.942c-0.771-1.561-2.997-1.561-3.768,0l-2.439,4.942c-0.306,0.62-0.898,1.05-1.582,1.149l-5.454,0.792
				c-1.723,0.25-2.411,2.368-1.164,3.583l3.947,3.847c0.495,0.483,0.721,1.178,0.604,1.859l-0.932,5.432
				c-0.294,1.716,1.507,3.025,3.048,2.215l4.878-2.565c0.612-0.322,1.343-0.322,1.955,0l4.878,2.565
				c1.541,0.81,3.343-0.499,3.048-2.215l-0.932-5.432c-0.117-0.681,0.109-1.377,0.604-1.859L152.035,64.638z"/>
		</g>
	</g>
	<g>
		<g>
			<path class="st0" d="M153.083,65.712c0.988-0.964,1.337-2.379,0.909-3.692c-0.427-1.313-1.541-2.251-2.906-2.449l-5.454-0.792
				c-0.195-0.028-0.364-0.151-0.452-0.329l-2.44-4.942c-0.61-1.238-1.848-2.007-3.229-2.007c-1.381,0-2.618,0.769-3.228,2.007
				l-2.44,4.943c-0.087,0.177-0.256,0.3-0.452,0.328l-5.453,0.792c-1.366,0.198-2.48,1.137-2.907,2.45
				c-0.427,1.313-0.079,2.728,0.911,3.692l3.946,3.846c0.142,0.139,0.206,0.337,0.173,0.533l-0.932,5.432
				c-0.233,1.361,0.316,2.71,1.433,3.521c1.116,0.813,2.57,0.917,3.793,0.274l4.878-2.565c0.174-0.092,0.385-0.092,0.559,0
				l4.878,2.565c0.532,0.279,1.107,0.417,1.679,0.417c0.744,0,1.482-0.233,2.113-0.691c1.117-0.812,1.667-2.161,1.434-3.522
				l-0.932-5.432c-0.034-0.195,0.031-0.394,0.172-0.532L153.083,65.712z M147.041,67.412c-0.849,0.828-1.235,2.02-1.035,3.187
				l0.932,5.432c0.055,0.32-0.126,0.506-0.239,0.588c-0.113,0.082-0.347,0.197-0.633,0.046l-4.878-2.565
				c-0.525-0.276-1.101-0.414-1.676-0.414s-1.151,0.138-1.676,0.414l-4.877,2.564c-0.291,0.153-0.521,0.036-0.634-0.045
				c-0.113-0.082-0.294-0.268-0.239-0.588l0.932-5.431c0.2-1.168-0.187-2.36-1.036-3.188l-3.946-3.846
				c-0.233-0.227-0.195-0.484-0.152-0.617c0.043-0.133,0.164-0.362,0.485-0.409l5.454-0.792c1.174-0.171,2.188-0.908,2.711-1.97
				l2.439-4.943c0.145-0.291,0.399-0.334,0.539-0.334c0.14,0,0.395,0.043,0.539,0.334v0l2.438,4.941
				c0.524,1.063,1.537,1.8,2.711,1.971l5.455,0.792c0.321,0.047,0.441,0.276,0.484,0.409c0.043,0.133,0.081,0.39-0.151,0.616
				L147.041,67.412z"/>
		</g>
	</g>
	<g>
		<g>
			<path class="st12" d="M125.461,84.024c1.247-1.215,0.559-3.333-1.164-3.583l-5.454-0.793c-0.684-0.099-1.276-0.529-1.582-1.149
				l-2.439-4.942c-0.771-1.561-2.997-1.561-3.768,0l-2.439,4.942c-0.306,0.62-0.898,1.05-1.582,1.149l-5.454,0.793
				c-1.723,0.25-2.411,2.368-1.164,3.583l3.947,3.847c0.495,0.483,0.721,1.178,0.604,1.86l-0.932,5.432
				c-0.294,1.716,1.507,3.025,3.048,2.215l4.878-2.565c0.612-0.322,1.343-0.322,1.955,0l4.878,2.565
				c1.541,0.81,3.343-0.499,3.048-2.215l-0.932-5.432c-0.117-0.682,0.109-1.377,0.604-1.86L125.461,84.024z"/>
		</g>
	</g>
	<g>
		<g>
			<path class="st0" d="M126.508,85.098c0.988-0.964,1.337-2.378,0.911-3.691c-0.427-1.313-1.54-2.252-2.907-2.451l-5.454-0.792
				c-0.196-0.028-0.365-0.151-0.453-0.329l-2.439-4.942c0,0,0,0,0,0c-0.611-1.238-1.849-2.007-3.229-2.007
				c-1.38,0-2.618,0.769-3.229,2.007l-2.439,4.942c-0.087,0.178-0.257,0.301-0.453,0.329l-5.454,0.792
				c-1.366,0.199-2.48,1.138-2.907,2.451c-0.426,1.313-0.077,2.727,0.912,3.691l3.946,3.846c0.142,0.138,0.206,0.337,0.173,0.532
				l-0.932,5.432c-0.233,1.36,0.315,2.71,1.432,3.521c1.117,0.812,2.57,0.917,3.793,0.274l4.877-2.564
				c0.175-0.091,0.385-0.092,0.56,0l4.878,2.564c0.532,0.279,1.106,0.417,1.679,0.417c0.744,0,1.482-0.233,2.114-0.692
				c1.117-0.812,1.666-2.161,1.432-3.521l-0.932-5.432c-0.034-0.195,0.031-0.394,0.172-0.532L126.508,85.098z M120.467,86.797
				c-0.848,0.827-1.235,2.019-1.035,3.187l0.932,5.432c0.055,0.32-0.126,0.506-0.239,0.588c-0.112,0.083-0.346,0.197-0.633,0.046
				l-4.878-2.564c-0.524-0.276-1.1-0.414-1.675-0.414c-0.576,0-1.151,0.138-1.676,0.414l-4.877,2.564
				c-0.287,0.151-0.52,0.037-0.633-0.046c-0.113-0.082-0.294-0.268-0.239-0.588l0.932-5.432c0.2-1.168-0.187-2.359-1.036-3.187
				l-3.946-3.847c-0.233-0.227-0.196-0.483-0.152-0.616c0.043-0.133,0.163-0.362,0.485-0.409l5.454-0.792
				c1.173-0.171,2.187-0.907,2.712-1.97l2.439-4.942c0.144-0.292,0.399-0.335,0.539-0.335c0.14,0,0.395,0.043,0.539,0.334
				l2.439,4.943c0.525,1.063,1.539,1.799,2.712,1.97l5.454,0.792c0.322,0.047,0.442,0.276,0.485,0.409
				c0.044,0.133,0.081,0.389-0.152,0.616L120.467,86.797z"/>
		</g>
	</g>
	<g>
		<g>
			<path class="st12" d="M178.919,84.024c1.247-1.215,0.559-3.333-1.164-3.583l-5.454-0.793c-0.684-0.099-1.276-0.529-1.582-1.149
				l-2.439-4.942c-0.771-1.561-2.997-1.561-3.768,0l-2.439,4.942c-0.306,0.62-0.898,1.05-1.582,1.149l-5.454,0.793
				c-1.723,0.25-2.411,2.368-1.164,3.583l3.947,3.847c0.495,0.483,0.721,1.178,0.604,1.86l-0.932,5.432
				c-0.294,1.716,1.507,3.025,3.048,2.215l4.878-2.565c0.612-0.322,1.343-0.322,1.955,0l4.878,2.565
				c1.541,0.81,3.343-0.499,3.048-2.215l-0.932-5.432c-0.117-0.682,0.109-1.377,0.604-1.86L178.919,84.024z"/>
		</g>
	</g>
	<g>
		<g>
			<path class="st0" d="M179.966,85.098c0.989-0.964,1.338-2.378,0.911-3.691c-0.427-1.313-1.541-2.252-2.907-2.451l-5.453-0.792
				c-0.196-0.028-0.365-0.151-0.453-0.329l-2.439-4.942c-0.61-1.238-1.848-2.007-3.229-2.007c-1.381,0-2.618,0.769-3.229,2.007
				l-2.44,4.943c-0.087,0.177-0.256,0.3-0.452,0.328l-5.453,0.792c-1.366,0.199-2.481,1.138-2.907,2.451
				c-0.427,1.313-0.078,2.728,0.911,3.691l3.947,3.846c0.141,0.138,0.206,0.337,0.172,0.532l-0.932,5.432
				c-0.233,1.361,0.316,2.71,1.433,3.521c1.116,0.813,2.569,0.917,3.793,0.274l4.878-2.564c0.174-0.092,0.385-0.092,0.559,0
				l4.879,2.565c0.531,0.279,1.106,0.417,1.679,0.417c0.743,0,1.482-0.233,2.113-0.692c1.116-0.811,1.666-2.161,1.433-3.521
				l-0.932-5.433c-0.033-0.194,0.031-0.393,0.173-0.531L179.966,85.098z M173.926,86.797c-0.85,0.828-1.236,2.02-1.036,3.187
				l0.932,5.432c0.055,0.32-0.126,0.506-0.239,0.588c-0.111,0.082-0.345,0.198-0.633,0.046l-4.878-2.564
				c-0.525-0.276-1.101-0.414-1.676-0.414c-0.575,0-1.151,0.138-1.676,0.414l-4.877,2.564c-0.29,0.154-0.521,0.037-0.634-0.045
				c-0.113-0.082-0.294-0.268-0.239-0.588l0.932-5.431c0.201-1.168-0.186-2.36-1.035-3.188l-3.947-3.847
				c-0.232-0.227-0.195-0.483-0.152-0.616c0.044-0.133,0.164-0.362,0.486-0.409l5.453-0.792c1.174-0.171,2.188-0.908,2.711-1.97
				l2.439-4.943c0.145-0.291,0.399-0.334,0.539-0.334s0.394,0.043,0.539,0.334v0l2.438,4.941c0.524,1.063,1.538,1.8,2.712,1.971
				l5.453,0.792c0.322,0.047,0.442,0.276,0.486,0.409c0.043,0.133,0.08,0.389-0.152,0.616L173.926,86.797z"/>
		</g>
	</g>
	<g>
		<g>
			<path class="st3" d="M139.15,43.04c-3.57,0-7.08,0.29-10.5,0.86c20.71,3.38,38.14,16.64,47.3,34.76l2.02,0.3
				c1.37,0.19,2.48,1.13,2.91,2.45c0.42,1.31,0.07,2.72-0.91,3.69l-0.88,0.85c2.45,6.81,3.78,14.15,3.78,21.8
				c0,32.11-23.51,58.84-54.22,63.86c3.42,0.57,6.93,0.86,10.5,0.86c35.68,0,64.72-29.03,64.72-64.72
				C203.87,72.07,174.83,43.04,139.15,43.04z"/>
		</g>
	</g>
</g>
</svg>
